<svg width="115" height="118" viewBox="0 0 115 118" fill="none" xmlns="http://www.w3.org/2000/svg">
<path fill-rule="evenodd" clip-rule="evenodd" d="M59.146 0.504622C82.4284 0.777203 103.645 15.094 111.176 38.368C119.075 62.7774 112.822 90.3846 93.2012 105.742C73.0309 121.529 45.4171 121.305 25.0817 105.755C4.63461 90.1203 -4.72497 62.3374 3.44092 37.1067C11.262 12.9413 34.9716 0.221599 59.146 0.504622Z" fill="url(#paint0_linear_27_242)" stroke="#00C8B3"/>
<path d="M28.0809 48.532C27.7609 50.772 27.6009 52.948 27.6009 55.06C27.6009 57.172 27.7609 59.156 28.0809 61.012C28.4009 62.868 28.8489 64.564 29.4249 66.1C30.0649 67.572 30.8649 68.82 31.8249 69.844C33.0409 71.124 34.6089 72.052 36.5289 72.628C38.5129 73.14 40.7209 73.236 43.1529 72.916C43.7929 70.42 44.5289 68.02 45.3609 65.716C46.2569 63.412 47.0889 61.172 47.8569 58.996C48.6889 56.82 49.3929 54.676 49.9689 52.564C50.5449 50.452 50.8329 48.372 50.8329 46.324C50.8329 46.132 50.8649 46.036 50.9289 46.036C50.9929 46.036 51.0569 46.132 51.1209 46.324C51.2489 46.516 51.3129 46.644 51.3129 46.708C52.0809 49.076 52.3049 51.476 51.9849 53.908C51.7289 56.276 51.1849 58.708 50.3529 61.204C49.5849 63.7 48.6889 66.26 47.6649 68.884C46.6409 71.444 45.8089 74.1 45.1689 76.852C44.8489 78.068 44.6569 79.476 44.5929 81.076C44.5289 82.74 44.6249 84.404 44.8809 86.068C45.2009 87.796 45.7129 89.492 46.4169 91.156C47.1849 92.82 48.2409 94.292 49.5849 95.572C49.6489 95.7 49.7449 95.828 49.8729 95.956L49.9689 96.052C49.9689 96.052 49.8729 96.052 49.6809 96.052C49.6169 96.052 49.5529 96.02 49.4889 95.956C47.7609 94.804 46.3209 93.492 45.1689 92.02C44.0809 90.548 43.2489 89.012 42.6729 87.412C42.1609 85.876 41.8409 84.308 41.7129 82.708C41.6489 81.172 41.7449 79.764 42.0009 78.484C40.0809 78.932 38.1609 78.996 36.2409 78.676C34.3849 78.356 32.6569 77.78 31.0569 76.948C30.7369 76.82 30.3849 76.564 30.0009 76.18C29.6809 75.796 29.5529 75.572 29.6169 75.508C29.6169 75.508 30.0969 75.604 31.0569 75.796C32.0809 75.924 33.2009 76.084 34.4169 76.276C35.6969 76.404 36.9449 76.532 38.1609 76.66C39.4409 76.724 40.3689 76.724 40.9449 76.66C41.1369 76.596 41.3289 76.564 41.5209 76.564C41.7769 76.5 42.0649 76.404 42.3849 76.276C42.3849 75.956 42.4169 75.668 42.4809 75.412C42.5449 75.092 42.6409 74.772 42.7689 74.452C40.5289 74.964 38.3529 75.028 36.2409 74.644C34.1289 74.26 32.2409 73.364 30.5769 71.956C29.2329 70.804 28.1449 69.428 27.3129 67.828C26.5449 66.164 25.9369 64.372 25.4889 62.452C25.1049 60.532 24.8809 58.548 24.8169 56.5C24.7529 54.388 24.8169 52.308 25.0089 50.26C25.2649 46.996 25.9049 43.7 26.9289 40.372C27.9529 37.044 29.2969 33.972 30.9609 31.156C32.6889 28.276 34.7049 25.812 37.0089 23.764C39.3769 21.652 42.0329 20.18 44.9769 19.348C46.3209 18.964 47.7609 18.804 49.2969 18.868C50.8329 18.932 52.2729 19.22 53.6169 19.732C54.9609 20.244 56.1129 20.98 57.0729 21.94C58.0969 22.836 58.7369 23.988 58.9929 25.396C59.3129 26.932 59.1849 28.436 58.6089 29.908C58.0329 31.316 57.2329 32.564 56.2089 33.652C55.1849 34.676 54.0329 35.412 52.7529 35.86C51.4729 36.308 50.2569 36.276 49.1049 35.764C48.6569 35.636 48.5609 35.508 48.8169 35.38C48.9449 35.316 49.0409 35.316 49.1049 35.38C49.1689 35.444 49.2649 35.476 49.3929 35.476C50.1609 35.604 51.0249 35.444 51.9849 34.996C52.9449 34.548 53.8089 33.908 54.5769 33.076C55.4089 32.244 56.0489 31.284 56.4969 30.196C57.0089 29.044 57.1689 27.892 56.9769 26.74C56.7849 25.78 56.3689 24.948 55.7289 24.244C55.1529 23.54 54.3849 22.964 53.4249 22.516C52.4649 22.068 51.3769 21.78 50.1609 21.652C49.0089 21.524 47.7609 21.588 46.4169 21.844C44.0489 22.292 41.8409 23.38 39.7929 25.108C37.7449 26.772 35.9209 28.852 34.3209 31.348C32.7209 33.78 31.3769 36.5 30.2889 39.508C29.2009 42.516 28.4649 45.524 28.0809 48.532ZM35.6649 80.212C36.5609 80.34 37.0729 80.436 37.2009 80.5C37.3289 80.564 36.8489 80.596 35.7609 80.596C33.9689 80.596 32.1449 80.308 30.2889 79.732C28.4969 79.156 26.8009 78.356 25.2009 77.332C23.6009 76.244 22.1609 74.932 20.8809 73.396C19.6009 71.86 18.6409 70.164 18.0009 68.308C16.5929 64.276 15.7609 60.436 15.5049 56.788C15.2489 53.076 15.4089 49.364 15.9849 45.652C16.3049 43.668 16.8169 41.396 17.5209 38.836C18.2249 36.276 19.1849 33.652 20.4009 30.964C21.6809 28.276 23.2489 25.62 25.1049 22.996C26.9609 20.372 29.2009 17.972 31.8249 15.796C34.5769 13.492 37.6489 11.988 41.0409 11.284C44.4329 10.516 47.6649 10.388 50.7369 10.9C53.8089 11.412 56.5289 12.532 58.8969 14.26C61.2649 15.924 62.8329 18.004 63.6009 20.5C63.6649 20.628 63.7609 20.884 63.8889 21.268C64.0169 21.652 64.0169 21.876 63.8889 21.94C63.7609 22.004 63.6329 21.876 63.5049 21.556C63.3769 21.236 63.1529 20.884 62.8329 20.5C60.1449 16.852 57.1049 14.548 53.7129 13.588C50.3209 12.628 46.9609 12.532 43.6329 13.3C40.3689 14.068 37.2649 15.54 34.3209 17.716C31.4409 19.828 29.1369 22.196 27.4089 24.82C24.4009 29.236 22.1609 34.068 20.6889 39.316C19.2169 44.5 18.5129 49.78 18.5769 55.156C18.6409 57.78 18.9289 60.436 19.4409 63.124C19.9529 65.812 20.8809 68.436 22.2249 70.996C23.5049 73.492 25.3929 75.572 27.8889 77.236C30.4489 78.9 33.0409 79.892 35.6649 80.212ZM22.0329 43.828C22.4809 40.5 23.2489 37.236 24.3369 34.036C25.4249 30.772 26.8649 27.828 28.6569 25.204C30.5129 22.58 32.7849 20.308 35.4729 18.388C38.1609 16.468 41.3289 15.124 44.9769 14.356C46.1929 14.1 47.5689 14.004 49.1049 14.068C50.7049 14.068 52.2729 14.356 53.8089 14.932C55.4089 15.444 56.8809 16.244 58.2249 17.332C59.6329 18.42 60.7849 19.924 61.6809 21.844C62.5129 23.7 62.8009 25.556 62.5449 27.412C62.3529 29.204 61.8409 30.836 61.0089 32.308C60.2409 33.716 59.2489 34.9 58.0329 35.86C56.8809 36.82 55.7289 37.364 54.5769 37.492C54.3849 37.556 54.1289 37.588 53.8089 37.588C53.5529 37.524 53.4249 37.428 53.4249 37.3C53.4249 37.172 53.4569 37.14 53.5209 37.204C53.5849 37.204 53.9369 37.076 54.5769 36.82C55.0249 36.628 55.5369 36.308 56.1129 35.86C56.7529 35.348 57.3289 34.708 57.8409 33.94C58.4169 33.172 58.9289 32.276 59.3769 31.252C59.8249 30.228 60.1129 29.108 60.2409 27.892C60.3689 26.612 60.2089 25.396 59.7609 24.244C59.3129 23.092 58.6409 22.068 57.7449 21.172C56.9129 20.212 55.9209 19.412 54.7689 18.772C53.6169 18.132 52.4329 17.716 51.2169 17.524C47.4409 16.948 44.0169 17.46 40.9449 19.06C37.8729 20.596 35.1529 22.74 32.7849 25.492C30.4169 28.18 28.4329 31.22 26.8329 34.612C25.2329 37.94 24.0169 41.108 23.1849 44.116C23.1849 44.18 23.1209 44.404 22.9929 44.788C22.8649 45.172 22.7369 45.588 22.6089 46.036C22.4809 46.484 22.3529 46.9 22.2249 47.284C22.1609 47.604 22.0969 47.764 22.0329 47.764C21.9689 47.764 21.9049 47.604 21.8409 47.284C21.8409 46.9 21.8409 46.484 21.8409 46.036C21.9049 45.524 21.9369 45.076 21.9369 44.692C22.0009 44.244 22.0329 43.956 22.0329 43.828ZM54.9609 77.716C54.5769 79.124 54.0009 80.884 53.2329 82.996C52.5289 85.172 51.8889 87.156 51.3129 88.948C51.1209 89.46 50.9609 89.716 50.8329 89.716C50.5769 89.716 50.4169 89.588 50.3529 89.332C50.3529 89.14 50.3529 88.98 50.3529 88.852C50.1609 87.124 50.1289 85.46 50.2569 83.86C50.3849 82.324 50.6409 80.788 51.0249 79.252C51.4089 77.716 51.8569 76.18 52.3689 74.644C52.9449 73.108 53.5209 71.476 54.0969 69.748C54.8649 67.508 55.5689 65.332 56.2089 63.22C56.8489 61.044 57.2329 58.612 57.3609 55.924C57.3609 55.604 57.3609 55.444 57.3609 55.444C57.4249 55.38 57.5209 55.348 57.6489 55.348L57.9369 55.924C58.5769 57.268 58.8329 58.932 58.7049 60.916C58.6409 62.9 58.3849 64.948 57.9369 67.06C57.4889 69.172 56.9449 71.188 56.3049 73.108C55.7289 75.028 55.2809 76.564 54.9609 77.716ZM55.2489 62.452C54.3529 64.884 53.3609 67.412 52.2729 70.036C51.1849 72.66 50.0649 75.188 48.9129 77.62C48.8489 77.684 48.7209 77.908 48.5289 78.292C48.4009 78.612 48.2409 78.74 48.0489 78.676C47.9209 78.612 47.8569 78.42 47.8569 78.1C47.8569 77.716 47.8569 77.428 47.8569 77.236C47.8569 76.66 47.9209 75.956 48.0489 75.124C48.1769 74.228 48.3369 73.364 48.5289 72.532C48.7209 71.636 48.9129 70.772 49.1049 69.94C49.3609 69.108 49.6169 68.404 49.8729 67.828C50.0009 67.444 50.2889 66.42 50.7369 64.756C51.1849 63.028 51.6329 61.172 52.0809 59.188C52.5289 57.14 52.8809 55.156 53.1369 53.236C53.3929 51.316 53.3929 49.876 53.1369 48.916C53.0089 48.596 53.0089 48.372 53.1369 48.244C53.2649 48.244 53.3609 48.34 53.4249 48.532C53.5529 48.66 53.6809 48.788 53.8089 48.916C54.3849 49.812 54.8329 50.868 55.1529 52.084C55.4729 53.236 55.6649 54.452 55.7289 55.732C55.8569 56.948 55.8569 58.164 55.7289 59.38C55.6649 60.532 55.5049 61.556 55.2489 62.452ZM49.5849 90.772C50.3529 92.372 51.2809 93.876 52.3689 95.284C52.5609 95.476 52.5929 95.636 52.4649 95.764C52.2729 95.892 52.0809 95.892 51.8889 95.764C51.7609 95.7 51.6649 95.636 51.6009 95.572C50.7049 95.06 49.9689 94.548 49.3929 94.036C48.8169 93.524 48.2409 92.532 47.6649 91.06C47.4729 90.548 47.2809 89.876 47.0889 89.044C46.9609 88.276 46.8649 87.508 46.8009 86.74C46.7369 86.036 46.7049 85.428 46.7049 84.916C46.7689 84.404 46.8969 84.18 47.0889 84.244C47.4089 84.244 47.6649 84.628 47.8569 85.396C48.1129 86.164 48.2729 86.644 48.3369 86.836C48.5929 87.54 48.7849 88.212 48.9129 88.852C49.0409 89.492 49.2649 90.132 49.5849 90.772Z" fill="url(#paint1_linear_27_242)"/>
<path d="M73.0594 54.732C72.1634 58.188 71.0434 61.772 69.6994 65.484C68.4194 69.196 67.0754 72.716 65.6674 76.044C65.6034 76.172 65.4434 76.492 65.1874 77.004C64.9314 77.452 64.7394 77.644 64.6114 77.58C64.4194 77.58 64.3234 77.324 64.3234 76.812C64.3874 76.236 64.4514 75.852 64.5154 75.66C64.5794 74.892 64.7074 73.932 64.8994 72.78C65.1554 71.628 65.3794 70.444 65.5714 69.228C65.8274 68.012 66.0834 66.828 66.3394 65.676C66.6594 64.524 66.9474 63.532 67.2034 62.7C67.3954 62.124 67.7474 60.684 68.2594 58.38C68.7714 56.076 69.2514 53.516 69.6994 50.7C70.2114 47.884 70.5954 45.164 70.8514 42.54C71.1074 39.916 71.1074 37.996 70.8514 36.78C70.7234 36.204 70.7234 35.916 70.8514 35.916C70.9794 35.916 71.0754 36.012 71.1394 36.204C71.2674 36.332 71.3954 36.46 71.5234 36.588C72.2274 37.676 72.7714 38.988 73.1554 40.524C73.5394 42.06 73.7634 43.692 73.8274 45.42C73.9554 47.084 73.9234 48.748 73.7314 50.412C73.6034 52.076 73.3794 53.516 73.0594 54.732ZM68.7394 34.188C69.6354 37.26 69.9234 40.46 69.6034 43.788C69.2834 47.052 68.6434 50.412 67.6834 53.868C66.7874 57.324 65.7634 60.844 64.6114 64.428C63.4594 68.012 62.4674 71.564 61.6354 75.084C60.8674 78.412 60.3234 81.708 60.0034 84.972C59.7474 88.236 59.9714 91.564 60.6754 94.956C60.8674 94.636 61.0594 94.412 61.2514 94.284C61.5074 94.156 61.7634 93.996 62.0194 93.804C62.0194 93.036 62.0194 92.268 62.0194 91.5C62.0194 90.668 62.0514 89.932 62.1154 89.292C62.1794 88.652 62.2754 88.14 62.4034 87.756C62.5314 87.372 62.7234 87.18 62.9794 87.18C63.0434 87.18 63.1074 87.34 63.1714 87.66C63.2994 87.98 63.3954 88.364 63.4594 88.812C63.5234 89.196 63.5874 89.612 63.6514 90.06C63.7154 90.444 63.7474 90.7 63.7474 90.828C63.8114 91.34 63.8434 91.724 63.8434 91.98C63.8434 92.236 63.9074 92.524 64.0354 92.844C64.1634 92.78 64.3554 92.716 64.6114 92.652C64.9314 92.524 65.2514 92.428 65.5714 92.364C65.8914 87.756 66.6274 83.18 67.7794 78.636C68.9314 74.028 70.2114 69.388 71.6194 64.716C72.5154 61.708 73.3474 58.636 74.1154 55.5C74.9474 52.3 75.4274 48.876 75.5554 45.228C75.5554 44.908 75.6514 44.748 75.8434 44.748C75.9074 44.748 75.9394 44.812 75.9394 44.94C75.9394 45.068 76.0034 45.196 76.1314 45.324C76.8354 47.052 77.0914 49.324 76.8994 52.14C76.7074 54.892 76.3234 57.772 75.7474 60.78C75.1714 63.724 74.4994 66.604 73.7314 69.42C72.9634 72.172 72.3874 74.38 72.0034 76.044C71.2994 78.732 70.4994 81.484 69.6034 84.3C68.7074 87.052 67.8434 89.644 67.0114 92.076C68.2274 91.884 69.5074 91.756 70.8514 91.692C72.2594 91.628 73.5394 91.628 74.6914 91.692C75.8434 91.692 76.8354 91.724 77.6674 91.788C78.5634 91.788 79.1394 91.788 79.3954 91.788C81.2514 91.852 83.1714 92.076 85.1554 92.46C87.1394 92.844 88.8674 93.164 90.3394 93.42C90.8514 93.548 91.1074 93.676 91.1074 93.804C91.1074 93.932 91.0114 94.028 90.8194 94.092C90.6274 94.156 90.4674 94.22 90.3394 94.284C87.5234 95.18 84.6754 95.564 81.7954 95.436C78.9794 95.244 76.0354 94.988 72.9634 94.668C71.8114 94.54 70.5954 94.444 69.3154 94.38C68.0994 94.316 66.8834 94.348 65.6674 94.476C64.4514 94.54 63.2674 94.764 62.1154 95.148C61.0274 95.468 60.0354 96.012 59.1394 96.78C57.7314 93.132 57.1234 89.292 57.3154 85.26C57.5074 81.228 58.0834 77.196 59.0434 73.164C59.8754 69.644 60.8354 66.156 61.9234 62.7C63.0114 59.18 64.0034 55.788 64.8994 52.524C65.8594 49.196 66.6274 45.996 67.2034 42.924C67.8434 39.852 68.1314 36.908 68.0674 34.092C68.1954 33.708 68.2914 33.516 68.3554 33.516C68.4194 33.452 68.4834 33.548 68.5474 33.804C68.6114 33.996 68.6754 34.124 68.7394 34.188ZM95.5234 91.5C95.6514 91.308 95.7474 91.34 95.8114 91.596C95.9394 91.788 95.9394 92.044 95.8114 92.364C95.4274 93.324 95.0434 94.156 94.6594 94.86C94.3394 95.564 93.6674 96.268 92.6434 96.972C92.1954 97.292 91.6514 97.58 91.0114 97.836C90.3714 98.092 89.7634 98.284 89.1874 98.412C88.6114 98.54 88.0994 98.604 87.6514 98.604C87.2034 98.604 86.9794 98.476 86.9794 98.22C86.9154 98.028 87.1714 97.772 87.7474 97.452C88.3874 97.132 88.8354 96.908 89.0914 96.78C89.6034 96.46 90.1154 96.172 90.6274 95.916C91.1394 95.596 91.6514 95.244 92.1634 94.86C92.6754 94.348 93.2194 93.836 93.7954 93.324C94.4354 92.812 95.0114 92.204 95.5234 91.5ZM96.0034 94.38C96.1954 94.06 96.2914 94.028 96.2914 94.284C96.2914 94.54 96.2594 94.732 96.1954 94.86C95.2354 97.036 94.1154 98.7 92.8354 99.852C91.6194 101.004 90.2754 101.868 88.8034 102.444C87.3954 102.956 85.8914 103.276 84.2914 103.404C82.7554 103.468 81.2194 103.5 79.6834 103.5C75.3954 103.436 71.2034 103.276 67.1074 103.02C63.0754 102.7 59.4274 102.86 56.1634 103.5C56.0354 103.5 55.9074 103.5 55.7794 103.5C55.6514 103.564 55.7154 103.5 55.9714 103.308C57.5074 101.772 59.2354 100.844 61.1554 100.524C63.0754 100.204 65.0914 100.172 67.2034 100.428C69.3794 100.62 71.5874 100.94 73.8274 101.388C76.0674 101.836 78.2434 102.092 80.3554 102.156C83.0434 102.22 85.7954 101.676 88.6114 100.524C91.4914 99.308 93.9554 97.26 96.0034 94.38ZM81.3154 98.796C81.3154 98.924 81.1874 99.02 80.9314 99.084C80.6754 99.148 80.4834 99.18 80.3554 99.18C79.3954 99.372 78.0834 99.5 76.4194 99.564C74.8194 99.628 73.3474 99.596 72.0034 99.468C71.6834 99.468 70.9474 99.436 69.7954 99.372C68.6434 99.244 67.2994 99.212 65.7634 99.276C64.2914 99.276 62.7874 99.436 61.2514 99.756C59.7154 100.076 58.4034 100.62 57.3154 101.388C57.0594 101.644 56.8674 101.676 56.7394 101.484C56.7394 101.42 56.7714 101.292 56.8354 101.1C56.9634 100.844 57.0594 100.684 57.1234 100.62C58.0194 99.212 59.3954 98.156 61.2514 97.452C63.1714 96.684 65.0914 96.204 67.0114 96.012C69.0594 95.82 71.2674 95.948 73.6354 96.396C76.0034 96.78 78.2434 97.292 80.3554 97.932C80.4194 97.932 80.5794 98.028 80.8354 98.22C81.1554 98.412 81.3154 98.604 81.3154 98.796Z" fill="url(#paint2_linear_27_242)"/>
<defs>
<linearGradient id="paint0_linear_27_242" x1="57.5002" y1="0.5" x2="57.5002" y2="117.5" gradientUnits="userSpaceOnUse">
<stop stop-color="#34C759"/>
<stop offset="1" stop-color="#00C8B3"/>
</linearGradient>
<linearGradient id="paint1_linear_27_242" x1="13.5002" y1="57.5" x2="61.5002" y2="57.5" gradientUnits="userSpaceOnUse">
<stop stop-color="white"/>
<stop offset="1" stop-color="#F2F2F7"/>
</linearGradient>
<linearGradient id="paint2_linear_27_242" x1="54.5002" y1="80.5" x2="97.5002" y2="80.5" gradientUnits="userSpaceOnUse">
<stop stop-color="white"/>
<stop offset="1" stop-color="#F2F2F7"/>
</linearGradient>
</defs>
</svg>
